<?xml version="1.0" standalone="no"?>
<!DOCTYPE svg PUBLIC "-//W3C//DTD SVG 20010904//EN"
 "http://www.w3.org/TR/2001/REC-SVG-20010904/DTD/svg10.dtd">
<svg version="1.0" xmlns="http://www.w3.org/2000/svg"
 width="1537.000000pt" height="446.000000pt" viewBox="0 0 1537.000000 446.000000"
 preserveAspectRatio="xMidYMid meet">
<g transform="translate(0.000000,446.000000) scale(0.100000,-0.100000)"
fill="#46618C" stroke="none">
<path d="M6450 3645 l0 -145 115 0 c104 0 115 2 125 20 7 13 21 20 40 20 l30
0 0 -468 0 -468 -25 -22 c-24 -21 -25 -27 -25 -132 l0 -110 170 0 170 0 0 113
c0 101 -2 116 -20 132 -19 18 -20 31 -20 487 l0 468 28 0 c16 0 32 -8 40 -20
11 -18 23 -20 127 -20 l115 0 0 145 0 145 -435 0 -435 0 0 -145z"/>
<path d="M7702 3697 l-92 -92 0 -540 0 -540 93 -93 92 -92 235 0 235 0 93 93
92 92 0 540 0 540 -93 93 -92 92 -235 0 -235 0 -93 -93z m480 -174 c17 -15 18
-42 18 -451 0 -391 -2 -437 -17 -454 -14 -16 -33 -18 -151 -18 -112 0 -139 3
-154 17 -17 15 -18 42 -18 451 0 391 2 437 17 454 14 16 33 18 151 18 112 0
139 -3 154 -17z"/>
<path d="M8838 3697 l-98 -92 0 -535 0 -535 98 -98 97 -97 225 0 225 0 98 98
97 97 0 133 0 132 -125 0 -125 0 0 -78 c0 -69 -3 -81 -23 -100 -21 -20 -34
-22 -148 -22 -186 0 -169 -47 -169 467 0 519 -16 473 169 473 120 0 129 -1
149 -23 19 -20 22 -35 22 -100 l0 -77 125 0 125 0 0 133 0 132 -93 93 -92 92
-230 0 -230 0 -97 -93z"/>
<path d="M9870 3677 c0 -101 2 -113 20 -125 20 -12 20 -23 20 -481 0 -455 -1
-468 -20 -486 -18 -16 -20 -31 -20 -132 l0 -113 170 0 170 0 0 110 c0 105 -1
111 -25 132 -20 17 -25 31 -25 70 0 45 5 54 91 163 50 63 97 115 103 114 6 0
30 -24 54 -54 l42 -54 0 -113 c0 -102 -2 -114 -20 -126 -18 -11 -20 -23 -20
-127 l0 -115 170 0 170 0 0 114 c0 110 -1 114 -25 130 -25 16 -25 17 -25 174
l-1 157 -89 110 c-49 61 -90 115 -90 120 0 6 40 62 90 125 l90 115 0 76 c0 71
2 78 25 93 24 16 25 20 25 126 l0 110 -170 0 -170 0 0 -113 c0 -101 2 -113 20
-125 13 -8 20 -23 20 -45 0 -26 -26 -64 -136 -204 -74 -95 -139 -173 -145
-173 -5 0 -9 84 -9 204 l0 204 25 16 c24 16 25 20 25 126 l0 110 -170 0 -170
0 0 -113z"/>
<path d="M10990 3683 l0 -108 35 -30 c31 -27 46 -61 150 -352 l115 -323 0
-135 c0 -132 0 -135 -25 -151 -24 -16 -25 -20 -25 -130 l0 -114 170 0 170 0 0
115 c0 104 -2 115 -20 125 -19 10 -20 21 -20 163 l0 152 111 310 c98 272 116
314 145 340 l34 30 0 108 0 108 -116 -3 -117 -3 -84 -235 c-47 -129 -90 -240
-97 -247 -8 -10 -32 45 -101 237 l-90 250 -117 0 -118 0 0 -107z"/>
<path d="M12570 3681 c0 -104 1 -110 24 -128 23 -17 34 -62 140 -593 64 -316
118 -585 121 -597 5 -23 7 -23 180 -23 173 0 175 0 180 23 3 12 57 281 121
597 106 528 118 576 140 593 23 18 24 24 24 128 l0 109 -125 0 c-69 0 -125 -1
-125 -2 -17 -109 -209 -1012 -216 -1009 -6 3 -184 841 -214 1009 0 1 -56 2
-125 2 l-125 0 0 -109z"/>
<path d="M13740 3680 c0 -106 1 -110 25 -126 l25 -16 0 -467 0 -467 -25 -22
c-24 -21 -25 -27 -25 -132 l0 -110 170 0 170 0 0 115 c0 104 -2 116 -20 127
-19 12 -20 24 -20 270 0 142 3 258 8 258 4 0 75 -173 157 -385 l150 -385 133
0 132 0 0 599 0 599 25 16 c24 16 25 20 25 126 l0 110 -170 0 -170 0 0 -113
c0 -101 2 -113 20 -125 19 -12 20 -23 20 -267 0 -140 -4 -255 -8 -255 -5 0
-75 171 -156 380 l-149 380 -158 0 -159 0 0 -110z"/>
<path d="M610 3699 c-27 -10 -60 -59 -60 -90 0 -10 -7 -19 -15 -19 -13 0 -15
-32 -15 -230 0 -191 2 -230 14 -230 8 0 18 -16 23 -36 4 -21 17 -42 28 -48 10
-6 26 -17 33 -24 11 -10 66 -12 246 -10 228 3 231 3 259 27 15 14 27 30 27 37
0 7 8 20 18 30 15 16 17 43 17 263 l0 246 -27 27 c-16 15 -28 31 -28 36 0 5
-11 14 -25 20 -31 15 -457 15 -495 1z"/>
<path d="M1643 3700 c-12 -5 -24 -18 -28 -29 -3 -10 -18 -24 -34 -29 -37 -13
-41 -38 -41 -282 0 -199 9 -270 35 -270 8 0 15 -4 15 -10 0 -5 12 -22 28 -37
l27 -28 238 0 c150 0 240 4 245 10 4 6 18 15 32 21 41 18 50 76 50 328 0 124
-4 235 -9 248 -15 40 -49 70 -88 79 -49 11 -441 10 -470 -1z"/>
<path d="M2663 3698 c-13 -6 -23 -15 -23 -20 0 -4 -6 -8 -13 -8 -33 0 -42 -51
-45 -280 -4 -257 5 -326 46 -341 13 -5 31 -16 39 -25 14 -13 48 -15 253 -12
l238 3 21 25 c11 14 20 31 21 38 0 6 4 12 10 12 24 0 32 82 28 303 -3 204 -5
230 -20 241 -10 7 -18 16 -18 20 0 4 -9 17 -21 29 -20 21 -27 22 -257 24 -159
2 -244 -1 -259 -9z"/>
<path d="M3692 3702 c-13 -4 -33 -25 -45 -47 -12 -22 -26 -43 -32 -47 -6 -5
-10 -98 -10 -246 0 -214 2 -240 18 -256 9 -10 17 -23 17 -29 1 -7 10 -23 21
-37 l21 -25 238 -3 c198 -3 239 -1 252 11 8 8 23 17 34 19 10 2 25 17 33 33 8
17 18 32 23 33 10 4 11 502 1 502 -5 0 -16 18 -26 39 -15 29 -28 41 -57 50
-40 12 -447 14 -488 3z"/>
<path d="M4723 3699 c-18 -5 -33 -13 -33 -18 0 -4 -9 -18 -20 -30 -28 -33 -32
-79 -28 -324 3 -194 5 -220 21 -231 9 -7 17 -20 17 -27 0 -8 10 -23 23 -34 21
-19 37 -20 264 -20 240 0 243 0 258 23 9 12 22 22 28 22 7 0 19 15 27 33 12
25 15 80 15 272 0 192 -3 247 -15 273 -8 17 -21 32 -27 32 -7 0 -13 4 -13 9 0
5 -14 14 -31 20 -39 13 -440 13 -486 0z"/>
<path d="M660 2630 c0 -5 -9 -10 -20 -10 -11 0 -20 -4 -20 -8 0 -5 -11 -14
-24 -20 -13 -6 -30 -24 -37 -41 -8 -17 -20 -31 -26 -31 -10 0 -13 -53 -13
-235 0 -202 2 -235 15 -235 8 0 15 -8 15 -19 0 -10 17 -36 37 -57 l36 -39 235
0 c179 0 236 3 239 13 3 6 11 12 19 12 7 0 21 12 31 28 10 15 22 30 28 34 14
10 14 506 0 516 -6 4 -18 19 -28 35 -10 15 -24 27 -32 27 -8 0 -15 5 -15 10 0
6 -7 10 -15 10 -8 0 -15 5 -15 10 0 6 -75 10 -205 10 -130 0 -205 -4 -205 -10z"/>
<path d="M1680 2630 c0 -5 -7 -10 -15 -10 -8 0 -15 -4 -15 -10 0 -5 -6 -10
-13 -10 -7 0 -23 -9 -35 -20 -12 -11 -26 -20 -31 -20 -24 0 -33 -88 -29 -304
4 -222 8 -256 34 -256 8 0 14 -4 14 -8 0 -5 12 -15 28 -23 15 -8 30 -18 34
-24 5 -6 93 -10 231 -10 196 0 226 2 240 17 10 9 25 19 35 22 42 14 47 39 50
293 4 265 -2 298 -53 321 -14 7 -25 16 -25 22 0 5 -13 10 -30 10 -16 0 -30 5
-30 10 0 6 -72 10 -195 10 -123 0 -195 -4 -195 -10z"/>
<path d="M2730 2630 c0 -5 -11 -10 -25 -10 -14 0 -35 -9 -47 -20 -12 -11 -27
-20 -33 -20 -6 0 -18 -12 -26 -27 -11 -20 -14 -79 -14 -273 0 -194 3 -253 14
-273 8 -15 20 -27 26 -27 6 0 22 -10 35 -22 24 -22 30 -23 249 -23 171 0 225
3 229 13 2 6 11 12 21 12 24 0 62 47 72 89 11 48 11 428 0 467 -11 40 -49 84
-73 84 -10 0 -18 5 -18 10 0 6 -11 10 -25 10 -14 0 -25 5 -25 10 0 6 -67 10
-180 10 -113 0 -180 -4 -180 -10z"/>
<path d="M3750 2630 c0 -5 -11 -10 -25 -10 -14 0 -25 -4 -25 -9 0 -5 -11 -12
-25 -15 -13 -3 -30 -16 -36 -29 -7 -12 -17 -25 -23 -29 -17 -11 -15 -506 2
-517 8 -5 19 -19 26 -32 6 -13 20 -26 31 -28 11 -2 23 -8 27 -15 5 -8 77 -11
238 -11 210 0 232 2 241 18 6 9 16 17 23 17 16 0 46 42 46 65 0 8 5 15 10 15
6 0 10 85 10 235 0 129 -4 235 -8 235 -5 0 -14 16 -22 35 -9 22 -20 35 -32 35
-10 0 -21 7 -24 15 -4 8 -17 15 -30 15 -13 0 -24 5 -24 10 0 6 -70 10 -190 10
-120 0 -190 -4 -190 -10z"/>
<path d="M4780 2630 c0 -5 -12 -10 -26 -10 -16 0 -40 -14 -67 -41 l-42 -41 0
-258 0 -258 44 -44 45 -43 230 0 c226 0 232 1 256 23 13 12 29 22 35 22 32 0
40 54 43 284 3 195 1 236 -13 273 -9 24 -22 43 -29 43 -7 0 -22 9 -34 20 -12
11 -33 20 -47 20 -14 0 -25 5 -25 10 0 6 -68 10 -185 10 -117 0 -185 -4 -185
-10z"/>
<path d="M12080 2471 l0 -131 125 0 125 0 0 125 0 125 -79 0 c-43 0 -99 3
-125 6 l-46 7 0 -132z"/>
<path d="M618 1538 c-8 -7 -23 -18 -33 -24 -11 -6 -24 -27 -29 -47 -5 -21 -15
-37 -23 -37 -10 0 -13 -46 -13 -230 0 -188 2 -230 14 -230 7 0 16 -13 19 -30
6 -27 18 -42 61 -77 22 -18 630 -18 652 -1 40 33 74 73 74 88 0 5 5 10 10 10
6 0 10 85 10 235 0 150 -4 235 -10 235 -5 0 -10 9 -10 20 0 21 -37 70 -53 70
-4 0 -15 7 -23 15 -13 13 -63 15 -324 15 -233 0 -312 -3 -322 -12z"/>
<path d="M1827 1543 c-11 -3 -27 -13 -38 -24 -10 -10 -25 -19 -33 -19 -26 0
-36 -85 -36 -301 0 -208 10 -289 34 -289 6 0 17 -9 24 -20 7 -11 19 -20 27
-20 8 0 15 -4 15 -10 0 -7 368 -10 1085 -10 656 0 1085 4 1085 9 0 5 16 15 35
21 24 8 35 18 35 31 0 11 7 22 15 25 9 4 15 19 15 40 0 19 5 34 10 34 6 0 10
73 10 200 0 127 -4 200 -10 200 -5 0 -10 11 -10 25 0 14 -3 25 -7 25 -5 0 -16
14 -25 30 -9 17 -24 30 -33 30 -9 0 -23 7 -31 15 -14 13 -146 15 -1082 14
-587 -1 -1075 -3 -1085 -6z"/>
<path d="M4566 1543 c-10 -3 -28 -14 -39 -24 -12 -10 -24 -19 -27 -19 -4 0
-13 -12 -20 -27 -19 -37 -26 -409 -10 -486 12 -59 52 -117 81 -117 11 0 19 -4
19 -10 0 -6 110 -10 310 -10 171 0 310 4 310 8 0 5 18 15 40 22 25 8 40 19 40
30 0 9 6 22 13 28 19 20 17 499 -2 535 -8 15 -20 27 -27 27 -7 0 -20 10 -29
23 -15 22 -16 22 -328 24 -171 1 -321 -1 -331 -4z"/>
<path d="M10537 1483 c-15 -14 -6 -23 23 -23 40 0 51 -27 22 -51 -25 -20 -29
-49 -7 -49 8 0 15 5 15 10 0 6 9 19 20 30 25 25 26 52 2 73 -19 17 -63 23 -75
10z"/>
<path d="M6610 1085 l0 -255 30 0 30 0 0 111 c0 109 0 111 29 140 35 34 68 37
105 8 25 -20 26 -23 26 -140 l0 -119 35 0 35 0 0 120 c0 177 -19 210 -118 210
-34 0 -57 -6 -75 -20 -14 -11 -28 -20 -31 -20 -3 0 -6 50 -6 110 l0 110 -30 0
-30 0 0 -255z"/>
<path d="M7900 1085 l0 -255 30 0 30 0 0 105 c0 57 5 115 11 128 21 47 90 61
127 27 20 -19 22 -30 22 -140 l0 -120 35 0 35 0 0 120 c0 177 -19 210 -118
210 -34 0 -57 -6 -75 -20 -14 -11 -28 -20 -31 -20 -3 0 -6 50 -6 110 l0 110
-30 0 -30 0 0 -255z"/>
<path d="M9567 1333 c-4 -3 -7 -118 -7 -255 l0 -248 35 0 35 0 0 105 c0 116
13 158 52 169 41 10 58 7 83 -19 24 -23 25 -30 25 -140 l0 -115 36 0 36 0 -4
133 c-4 140 -11 166 -55 186 -38 18 -102 13 -139 -10 l-34 -21 0 111 0 111
-28 0 c-16 0 -32 -3 -35 -7z"/>
<path d="M10521 1281 c-35 -44 -37 -51 -17 -51 8 0 26 15 41 33 l26 32 28 -32
c15 -18 35 -33 45 -33 14 0 12 8 -15 45 -41 57 -66 59 -108 6z"/>
<path d="M12536 1312 c-7 -11 63 -92 80 -92 19 0 18 3 -18 55 -30 42 -51 55
-62 37z"/>
<path d="M13962 1308 c-18 -18 -14 -56 7 -68 26 -14 50 -3 57 26 11 42 -34 72
-64 42z"/>
<path d="M14261 1275 c-27 -37 -29 -45 -15 -45 10 0 30 15 46 33 l28 32 27
-33 c16 -18 34 -32 41 -32 17 0 15 7 -15 51 -39 55 -70 53 -112 -6z"/>
<path d="M6160 995 l0 -165 35 0 35 0 0 105 c0 114 9 147 47 164 35 16 57 14
87 -10 25 -20 26 -23 26 -140 l0 -119 35 0 35 0 0 119 c0 135 -10 176 -51 196
-36 19 -110 19 -135 0 -25 -19 -44 -19 -44 0 0 10 -11 15 -35 15 l-35 0 0
-165z"/>
<path d="M7073 1141 c-32 -20 -49 -53 -38 -71 11 -19 50 -11 60 12 14 31 64
44 101 27 22 -11 30 -22 32 -46 3 -28 0 -33 -25 -39 -115 -26 -140 -35 -162
-60 -19 -23 -22 -35 -18 -68 8 -54 36 -76 97 -76 34 0 58 7 83 25 36 24 37 24
47 5 8 -15 21 -20 50 -20 44 0 55 21 21 40 -17 8 -20 24 -23 121 l-3 111 -33
29 c-28 25 -40 29 -95 29 -44 0 -71 -6 -94 -19z m167 -182 c0 -12 -16 -37 -35
-56 -27 -27 -41 -34 -66 -31 -18 2 -37 12 -45 24 -20 29 0 52 61 69 72 19 85
18 85 -6z"/>
<path d="M7460 995 l0 -165 30 0 30 0 0 111 c0 109 0 111 29 140 35 35 77 38
109 9 20 -19 22 -30 22 -140 l0 -120 35 0 35 0 0 120 c0 129 -12 180 -48 199
-30 16 -115 14 -138 -4 -25 -19 -44 -19 -44 0 0 10 -10 15 -30 15 l-30 0 0
-165z"/>
<path d="M9190 1137 c-51 -33 -72 -77 -72 -147 0 -104 65 -170 167 -170 55 0
93 18 129 60 33 40 33 46 -1 53 -22 4 -33 0 -51 -23 -68 -86 -192 -17 -179 99
10 93 102 131 170 71 30 -26 87 -42 87 -25 0 20 -36 69 -63 85 -47 29 -143 27
-187 -3z"/>
<path d="M10000 1019 l0 -141 29 -29 c25 -24 38 -29 79 -29 36 0 57 6 77 22
26 20 29 20 40 5 7 -9 24 -17 39 -17 l26 0 0 165 0 165 -29 0 -28 0 -5 -114
c-3 -83 -9 -120 -21 -139 -31 -48 -118 -43 -137 8 -6 15 -10 76 -10 136 l0
109 -30 0 -30 0 0 -141z"/>
<path d="M10473 1141 c-32 -20 -49 -53 -38 -71 11 -18 39 -10 61 17 17 22 30
28 62 28 48 0 72 -18 72 -56 0 -25 -5 -29 -42 -39 -114 -28 -130 -34 -148 -58
-28 -35 -26 -87 5 -117 35 -36 111 -35 155 1 l31 27 15 -22 c11 -15 26 -21 55
-21 43 0 54 21 20 39 -16 9 -19 25 -23 122 -3 111 -3 111 -36 140 -28 25 -40
29 -95 29 -44 0 -71 -6 -94 -19z m167 -182 c0 -33 -62 -89 -98 -89 -28 0 -62
21 -62 39 0 21 31 43 75 56 72 19 85 18 85 -6z"/>
<path d="M10857 1153 c-4 -3 -7 -78 -7 -165 l0 -158 35 0 35 0 0 105 c0 129
12 161 66 171 27 5 42 2 62 -13 26 -20 27 -23 30 -142 l3 -121 34 0 35 0 0
113 c0 138 -11 182 -50 202 -42 21 -106 19 -146 -6 l-34 -21 0 21 c0 16 -6 21
-28 21 -16 0 -32 -3 -35 -7z"/>
<path d="M12060 1152 c0 -5 28 -79 63 -163 l64 -154 33 0 34 0 63 150 c34 83
63 156 63 163 0 9 -10 12 -31 10 -31 -3 -33 -7 -77 -125 -25 -68 -48 -123 -52
-123 -4 0 -27 55 -52 123 -43 119 -45 122 -76 125 -18 2 -32 -1 -32 -6z"/>
<path d="M12523 1141 c-32 -20 -49 -53 -38 -71 11 -18 39 -10 61 17 17 22 30
28 62 28 48 0 72 -18 72 -56 0 -25 -5 -29 -42 -39 -114 -28 -130 -34 -148 -58
-28 -35 -26 -87 5 -117 36 -37 111 -35 156 2 l32 27 15 -22 c11 -16 24 -22 53
-22 43 0 54 21 20 39 -16 9 -19 25 -23 122 -3 111 -3 111 -36 140 -28 25 -40
29 -95 29 -44 0 -71 -6 -94 -19z m167 -182 c0 -33 -62 -89 -98 -89 -28 0 -62
21 -62 39 0 21 32 45 76 56 71 19 84 18 84 -6z"/>
<path d="M12956 1137 c-107 -61 -102 -243 9 -297 86 -42 192 -14 234 61 30 53
27 149 -7 196 -46 64 -160 84 -236 40z m171 -61 c97 -114 -47 -277 -152 -172
-27 27 -41 83 -31 122 4 15 21 40 37 57 27 26 35 29 77 24 34 -4 53 -12 69
-31z"/>
<path d="M13520 1152 c0 -5 29 -79 64 -163 l64 -154 33 0 33 0 67 160 67 160
-30 3 c-17 2 -34 0 -38 -5 -3 -4 -26 -61 -49 -125 -24 -65 -47 -118 -51 -118
-4 0 -27 55 -51 123 -43 120 -45 122 -76 125 -18 2 -33 -1 -33 -6z"/>
<path d="M13960 995 l0 -165 30 0 30 0 0 165 0 165 -30 0 -30 0 0 -165z"/>
<path d="M14230 1142 c-107 -56 -104 -249 4 -301 46 -23 115 -27 149 -10 32
17 77 61 77 76 0 22 -50 15 -82 -12 -49 -41 -114 -29 -148 27 -35 57 -33 58
110 58 l130 0 0 36 c0 50 -26 100 -65 124 -42 26 -127 27 -175 2z m125 -37
c33 -13 59 -50 48 -67 -2 -5 -44 -8 -94 -8 -98 0 -106 6 -69 53 18 22 30 28
73 36 4 0 23 -6 42 -14z"/>
<path d="M14664 1146 c-118 -51 -121 -246 -5 -306 79 -40 173 -18 219 50 l23
35 -28 6 c-23 4 -33 -1 -54 -25 -23 -26 -34 -31 -74 -31 -40 0 -51 5 -76 33
-49 55 -37 157 22 188 46 23 87 18 121 -17 23 -22 38 -29 59 -27 l29 3 -18 34
c-10 19 -34 43 -53 53 -40 21 -120 23 -165 4z"/>
<path d="M8550 1000 l0 -30 115 0 115 0 0 30 0 30 -115 0 -115 0 0 -30z"/>
<path d="M11510 1000 l0 -30 115 0 115 0 0 30 0 30 -115 0 -115 0 0 -30z"/>
<path d="M14291 716 c-16 -19 -11 -46 12 -60 25 -16 52 4 52 40 0 24 -5 30
-26 32 -14 2 -31 -4 -38 -12z"/>
</g>
</svg>
